<?xml version="1.0" encoding="utf-8"?>
<!-- Generator: Adobe Illustrator 26.4.1, SVG Export Plug-In . SVG Version: 6.00 Build 0)  -->
<svg version="1.1" id="Capa_1" xmlns="http://www.w3.org/2000/svg" xmlns:xlink="http://www.w3.org/1999/xlink" x="0px" y="0px"
	 viewBox="0 0 640 132" style="enable-background:new 0 0 640 132;" xml:space="preserve">
<style type="text/css">
	.st0{fill:#D2232A;}
	.st1{fill:#040006;}
</style>
<path class="st0" d="M578.3,56.5h-7.4v13.9c0,3.6-1.1,9.4-6.5,9.4c-4.7,0-4.8-4.7-4.8-8.1V56.5h-7.4v17.9c0,6.4,2.9,11.1,9.6,11.1
	c3.8,0,7-1.8,9.3-4.5h0.1v3.8h7V56.5z"/>
<path class="st0" d="M601.6,84.9h7.1l0-40.1h-7.4l0,15.1h-0.1c-2.2-2.7-4.8-4-8.5-4c-8.7,0-11.9,6.9-11.9,14.7
	c0,7.8,3.2,14.9,11.9,14.9c3.5,0,6.5-1.1,8.7-3.8h0.1V84.9z M588.7,70.6c0-3.8,1.3-9,6.1-9c4.7,0,6.6,5.1,6.6,9c0,4-1.6,9.2-6.5,9.2
	C590,79.8,588.7,74.5,588.7,70.6"/>
<path class="st0" d="M626.2,61.6c4.8,0,6.1,5.2,6.1,9c0,3.9-1.4,9.2-6.2,9.2c-4.9,0-6.5-5.2-6.5-9.2
	C619.6,66.7,621.5,61.6,626.2,61.6 M612.2,96.4h7.4V81.6h0.1c2.6,3.1,5.2,3.9,8.3,3.9c8.9,0,12-7.1,12-14.9
	c0-7.8-3.2-14.7-11.9-14.7c-4.3,0-7.1,1.9-8.8,4.7h-0.1v-4h-7V96.4z"/>
<path class="st1" d="M6.8,123.4c4.1,0,7.1-2.9,7.1-7.1c0-4.1-3-7.1-7.1-7.1H3.1v14.2H6.8z M1.2,108c0-0.2,0.2-0.5,0.5-0.5h5.6
	c4.8,0,8.8,3.9,8.8,8.8c0,4.9-4,8.8-8.8,8.8H1.6c-0.2,0-0.5-0.2-0.5-0.5V108z"/>
<path class="st1" d="M19.9,108c0-0.3,0.2-0.5,0.5-0.5h1c0.3,0,0.5,0.2,0.5,0.5v16.6c0,0.2-0.2,0.5-0.5,0.5h-1
	c-0.3,0-0.5-0.2-0.5-0.5V108z"/>
<path class="st1" d="M33.9,116.6c1.9,0,3.6-1.6,3.6-3.7c0-1.9-1.7-3.5-3.6-3.5H29v7.2H33.9z M27,108c0-0.3,0.2-0.5,0.5-0.5H34
	c3,0,5.5,2.4,5.5,5.4c0,2.3-1.5,4.2-3.7,5.1l3.4,6.4c0.2,0.3,0,0.7-0.4,0.7h-1.3c-0.2,0-0.4-0.1-0.4-0.2l-3.3-6.7H29v6.4
	c0,0.2-0.2,0.5-0.5,0.5h-1c-0.3,0-0.5-0.2-0.5-0.5V108z"/>
<path class="st1" d="M43.6,108c0-0.3,0.2-0.5,0.5-0.5H54c0.3,0,0.5,0.2,0.5,0.5v0.7c0,0.2-0.2,0.5-0.5,0.5h-8.4v6.1h7.2
	c0.2,0,0.5,0.2,0.5,0.5v0.7c0,0.3-0.2,0.5-0.5,0.5h-7.2v6.4H54c0.3,0,0.5,0.2,0.5,0.5v0.7c0,0.2-0.2,0.5-0.5,0.5h-9.9
	c-0.3,0-0.5-0.2-0.5-0.5V108z"/>
<path class="st1" d="M66.2,107.3c2.5,0,4.4,0.9,6.1,2.3c0.2,0.2,0.2,0.5,0,0.7l-0.7,0.7c-0.2,0.3-0.4,0.2-0.7,0
	c-1.3-1.1-3.1-1.9-4.8-1.9c-4,0-7,3.3-7,7.2c0,3.9,3,7.2,7,7.2c2.2,0,3.5-0.9,4.8-1.9c0.2-0.2,0.5-0.2,0.6-0.1l0.8,0.7
	c0.2,0.2,0.2,0.5,0,0.7c-1.7,1.7-3.9,2.4-6.1,2.4c-5,0-9.1-4-9.1-9C57.2,111.3,61.2,107.3,66.2,107.3"/>
<path class="st1" d="M83.9,107.3c2.5,0,4.4,0.9,6.1,2.3c0.2,0.2,0.2,0.5,0,0.7l-0.7,0.7c-0.2,0.3-0.4,0.2-0.7,0
	c-1.3-1.1-3.1-1.9-4.8-1.9c-4,0-7,3.3-7,7.2c0,3.9,3,7.2,7,7.2c2.2,0,3.5-0.9,4.8-1.9c0.3-0.2,0.5-0.2,0.6-0.1l0.8,0.7
	c0.2,0.2,0.2,0.5,0,0.7c-1.7,1.7-3.9,2.4-6.1,2.4c-5,0-9.1-4-9.1-9C74.8,111.3,78.9,107.3,83.9,107.3"/>
<path class="st1" d="M93.9,108c0-0.3,0.2-0.5,0.5-0.5h1c0.2,0,0.5,0.2,0.5,0.5v16.6c0,0.2-0.2,0.5-0.5,0.5h-1
	c-0.3,0-0.5-0.2-0.5-0.5V108z"/>
<path class="st1" d="M106.5,104.9c-0.1-0.2,0-0.4,0.1-0.5l3.8-2.1c0.1-0.1,0.5-0.1,0.7,0.1l0.5,0.9c0.1,0.2,0,0.5-0.1,0.5l-4,1.7
	c-0.3,0.1-0.5,0.1-0.6-0.1L106.5,104.9z M108.7,123.6c4,0,7.3-3.3,7.3-7.3c0-4-3.3-7.3-7.3-7.3c-4,0-7.3,3.3-7.3,7.3
	C101.5,120.4,104.7,123.6,108.7,123.6 M108.7,107.3c5,0,9,4,9,9.1c0,5-4,9-9,9c-5,0-9-4-9-9C99.7,111.3,103.7,107.3,108.7,107.3"/>
<path class="st1" d="M121.6,107.7c0-0.2,0.2-0.5,0.5-0.5h0.6l11.3,14.1h0V108c0-0.2,0.2-0.5,0.5-0.5h0.9c0.3,0,0.5,0.2,0.5,0.5v16.9
	c0,0.3-0.2,0.5-0.5,0.5H135L123.5,111h0v13.7c0,0.3-0.2,0.5-0.5,0.5h-0.9c-0.3,0-0.5-0.2-0.5-0.5V107.7z"/>
<path class="st1" d="M152.3,123.4c4.1,0,7.1-2.9,7.1-7.1c0-4.1-3-7.1-7.1-7.1h-3.8v14.2H152.3z M146.7,108c0-0.2,0.2-0.5,0.5-0.5
	h5.6c4.8,0,8.8,3.9,8.8,8.8c0,4.9-4,8.8-8.8,8.8h-5.6c-0.2,0-0.5-0.2-0.5-0.5V108z"/>
<path class="st1" d="M165.4,108c0-0.3,0.2-0.5,0.5-0.5h9.9c0.3,0,0.5,0.2,0.5,0.5v0.7c0,0.2-0.2,0.5-0.5,0.5h-8.4v6.1h7.2
	c0.2,0,0.5,0.2,0.5,0.5v0.7c0,0.3-0.2,0.5-0.5,0.5h-7.2v6.4h8.4c0.3,0,0.5,0.2,0.5,0.5v0.7c0,0.2-0.2,0.5-0.5,0.5h-9.9
	c-0.3,0-0.5-0.2-0.5-0.5V108z"/>
<path class="st1" d="M195.4,119.1c-1.2-2.7-2.4-5.5-3.7-8.2h-0.2l-3.7,8.2H195.4z M183.5,124.5l7.6-16.9c0.1-0.1,0.2-0.3,0.4-0.3
	h0.2c0.2,0,0.4,0.1,0.4,0.3l7.6,16.9c0.2,0.3,0,0.7-0.4,0.7h-1c-0.2,0-0.4-0.1-0.4-0.3l-1.9-4.1h-8.9l-1.8,4.1
	c0,0.1-0.2,0.3-0.4,0.3h-1C183.5,125.1,183.3,124.8,183.5,124.5"/>
<path class="st1" d="M201.4,122.5c0.1-0.1,0.2-0.3,0.4-0.5c0.3-0.3,0.5-0.5,0.9-0.2c0.2,0.1,2,1.9,4.2,1.9c2,0,3.4-1.3,3.4-2.8
	c0-1.7-1.5-2.8-4.4-4c-2.8-1.2-4.4-2.3-4.4-5.2c0-1.7,1.4-4.5,5.4-4.5c2.5,0,4.3,1.3,4.3,1.3c0.1,0.1,0.5,0.4,0.1,0.9
	c-0.1,0.1-0.2,0.3-0.3,0.5c-0.2,0.4-0.5,0.5-0.9,0.2c-0.2-0.1-1.8-1.2-3.3-1.2c-2.7,0-3.5,1.7-3.5,2.8c0,1.7,1.3,2.7,3.4,3.5
	c3.4,1.4,5.6,2.7,5.6,5.6c0,2.6-2.5,4.5-5.4,4.5c-3,0-5-1.7-5.3-2C201.4,123.2,201.1,123,201.4,122.5"/>
<path class="st1" d="M215.7,108c0-0.3,0.2-0.5,0.5-0.5h1c0.3,0,0.5,0.2,0.5,0.5v10.5c0,2.9,1.8,5.1,4.7,5.1c3,0,4.8-2.2,4.8-5.1V108
	c0-0.3,0.2-0.5,0.5-0.5h1c0.2,0,0.5,0.2,0.5,0.5v10.6c0,3.8-2.7,6.7-6.7,6.7c-3.9,0-6.6-2.9-6.6-6.7V108z"/>
<path class="st1" d="M234,107.7c0-0.2,0.2-0.5,0.5-0.5h0.6l11.3,14.1h0V108c0-0.2,0.2-0.5,0.5-0.5h0.9c0.3,0,0.5,0.2,0.5,0.5v16.9
	c0,0.3-0.2,0.5-0.5,0.5h-0.5L235.8,111h0v13.7c0,0.3-0.2,0.5-0.5,0.5h-0.9c-0.3,0-0.5-0.2-0.5-0.5V107.7z"/>
<path class="st1" d="M255.9,109.2h-4.4c-0.3,0-0.5-0.2-0.5-0.5V108c0-0.3,0.2-0.5,0.5-0.5h10.7c0.3,0,0.5,0.2,0.5,0.5v0.7
	c0,0.2-0.2,0.5-0.5,0.5h-4.4v15.4c0,0.3-0.2,0.5-0.5,0.5h-1c-0.2,0-0.5-0.2-0.5-0.5V109.2z"/>
<path class="st1" d="M272.9,123.6c4,0,7.3-3.3,7.3-7.3c0-4-3.3-7.3-7.3-7.3c-4,0-7.3,3.3-7.3,7.3
	C265.6,120.4,268.9,123.6,272.9,123.6 M272.9,107.3c5,0,9,4,9,9.1c0,5-4,9-9,9c-5,0-9-4-9-9C263.8,111.3,267.8,107.3,272.9,107.3"/>
<path class="st1" d="M284.6,122.5c0.1-0.1,0.2-0.3,0.4-0.5c0.2-0.3,0.5-0.5,0.9-0.2c0.2,0.1,2,1.9,4.2,1.9c2,0,3.4-1.3,3.4-2.8
	c0-1.7-1.5-2.8-4.4-4c-2.8-1.2-4.4-2.3-4.4-5.2c0-1.7,1.4-4.5,5.4-4.5c2.5,0,4.3,1.3,4.3,1.3c0.1,0.1,0.5,0.4,0.1,0.9
	c-0.1,0.1-0.2,0.3-0.3,0.5c-0.2,0.4-0.5,0.5-0.9,0.2c-0.2-0.1-1.8-1.2-3.3-1.2c-2.7,0-3.5,1.7-3.5,2.8c0,1.7,1.3,2.7,3.4,3.5
	c3.4,1.4,5.6,2.7,5.6,5.6c0,2.6-2.5,4.5-5.4,4.5c-3,0-5-1.7-5.3-2C284.6,123.2,284.3,123,284.6,122.5"/>
<path class="st1" d="M304.7,108c0-0.3,0.2-0.5,0.5-0.5h9.9c0.3,0,0.5,0.2,0.5,0.5v0.7c0,0.2-0.2,0.5-0.5,0.5h-8.4v6.1h7.2
	c0.2,0,0.5,0.2,0.5,0.5v0.7c0,0.3-0.2,0.5-0.5,0.5h-7.2v6.4h8.4c0.3,0,0.5,0.2,0.5,0.5v0.7c0,0.2-0.2,0.5-0.5,0.5h-9.9
	c-0.3,0-0.5-0.2-0.5-0.5V108z"/>
<path class="st1" d="M318.5,122.5c0.1-0.1,0.2-0.3,0.4-0.5c0.2-0.3,0.5-0.5,0.9-0.2c0.2,0.1,2,1.9,4.2,1.9c2,0,3.4-1.3,3.4-2.8
	c0-1.7-1.5-2.8-4.4-4c-2.8-1.2-4.4-2.3-4.4-5.2c0-1.7,1.4-4.5,5.4-4.5c2.5,0,4.3,1.3,4.3,1.3c0.1,0.1,0.5,0.4,0.1,0.9
	c-0.1,0.1-0.2,0.3-0.3,0.5c-0.2,0.4-0.5,0.5-0.9,0.2c-0.2-0.1-1.8-1.2-3.3-1.2c-2.7,0-3.5,1.7-3.5,2.8c0,1.7,1.3,2.7,3.4,3.5
	c3.4,1.4,5.6,2.7,5.6,5.6c0,2.6-2.5,4.5-5.4,4.5c-3,0-5-1.7-5.3-2C318.4,123.2,318.2,123,318.5,122.5"/>
<path class="st1" d="M335.5,109.2h-4.4c-0.3,0-0.5-0.2-0.5-0.5V108c0-0.3,0.2-0.5,0.5-0.5h10.7c0.3,0,0.5,0.2,0.5,0.5v0.7
	c0,0.2-0.2,0.5-0.5,0.5h-4.4v15.4c0,0.3-0.2,0.5-0.5,0.5h-1c-0.2,0-0.5-0.2-0.5-0.5V109.2z"/>
<path class="st1" d="M344.8,108c0-0.3,0.2-0.5,0.5-0.5h1c0.3,0,0.5,0.2,0.5,0.5v10.5c0,2.9,1.8,5.1,4.7,5.1c3,0,4.8-2.2,4.8-5.1V108
	c0-0.3,0.2-0.5,0.5-0.5h1c0.3,0,0.5,0.2,0.5,0.5v10.6c0,3.8-2.7,6.7-6.7,6.7c-3.9,0-6.6-2.9-6.6-6.7V108z"/>
<path class="st1" d="M368.7,123.4c4.1,0,7.1-2.9,7.1-7.1c0-4.1-3-7.1-7.1-7.1h-3.8v14.2H368.7z M363,108c0-0.2,0.2-0.5,0.5-0.5h5.6
	c4.8,0,8.8,3.9,8.8,8.8c0,4.9-4,8.8-8.8,8.8h-5.6c-0.3,0-0.5-0.2-0.5-0.5V108z"/>
<path class="st1" d="M381.8,108c0-0.3,0.2-0.5,0.5-0.5h1c0.3,0,0.5,0.2,0.5,0.5v16.6c0,0.2-0.2,0.5-0.5,0.5h-1
	c-0.2,0-0.5-0.2-0.5-0.5V108z"/>
<path class="st1" d="M398.4,119.1c-1.2-2.7-2.4-5.5-3.7-8.2h-0.2l-3.7,8.2H398.4z M386.5,124.5l7.6-16.9c0.1-0.1,0.2-0.3,0.4-0.3
	h0.2c0.2,0,0.4,0.1,0.4,0.3l7.6,16.9c0.1,0.3,0,0.7-0.4,0.7h-1c-0.2,0-0.4-0.1-0.4-0.3l-1.9-4.1h-8.9l-1.8,4.1
	c0,0.1-0.2,0.3-0.4,0.3h-1C386.5,125.1,386.3,124.8,386.5,124.5"/>
<path class="st1" d="M405.6,107.7c0-0.2,0.2-0.5,0.5-0.5h0.6l11.3,14.1h0V108c0-0.2,0.2-0.5,0.5-0.5h0.9c0.2,0,0.5,0.2,0.5,0.5v16.9
	c0,0.3-0.2,0.5-0.5,0.5h-0.5L407.4,111h0v13.7c0,0.3-0.2,0.5-0.5,0.5H406c-0.2,0-0.5-0.2-0.5-0.5V107.7z"/>
<path class="st1" d="M427.5,109.2h-4.4c-0.3,0-0.5-0.2-0.5-0.5V108c0-0.3,0.2-0.5,0.5-0.5h10.7c0.3,0,0.5,0.2,0.5,0.5v0.7
	c0,0.2-0.2,0.5-0.5,0.5h-4.4v15.4c0,0.3-0.2,0.5-0.5,0.5h-1c-0.3,0-0.5-0.2-0.5-0.5V109.2z"/>
<path class="st1" d="M437,108c0-0.3,0.2-0.5,0.5-0.5h1c0.3,0,0.5,0.2,0.5,0.5v16.6c0,0.2-0.2,0.5-0.5,0.5h-1c-0.3,0-0.5-0.2-0.5-0.5
	V108z"/>
<path class="st1" d="M444.1,108c0-0.3,0.2-0.5,0.5-0.5h1c0.3,0,0.5,0.2,0.5,0.5v15.4h7.2c0.3,0,0.5,0.2,0.5,0.5v0.7
	c0,0.2-0.2,0.5-0.5,0.5h-8.7c-0.3,0-0.5-0.2-0.5-0.5V108z"/>
<path class="st1" d="M456.4,108c0-0.3,0.2-0.5,0.5-0.5h9.9c0.3,0,0.5,0.2,0.5,0.5v0.7c0,0.2-0.2,0.5-0.5,0.5h-8.4v6.1h7.2
	c0.3,0,0.5,0.2,0.5,0.5v0.7c0,0.3-0.2,0.5-0.5,0.5h-7.2v6.4h8.4c0.3,0,0.5,0.2,0.5,0.5v0.7c0,0.2-0.2,0.5-0.5,0.5h-9.9
	c-0.3,0-0.5-0.2-0.5-0.5V108z"/>
<path class="st1" d="M470.2,122.5c0.1-0.1,0.3-0.3,0.4-0.5c0.3-0.3,0.5-0.5,0.9-0.2c0.2,0.1,2,1.9,4.2,1.9c2,0,3.4-1.3,3.4-2.8
	c0-1.7-1.5-2.8-4.4-4c-2.8-1.2-4.4-2.3-4.4-5.2c0-1.7,1.4-4.5,5.4-4.5c2.5,0,4.3,1.3,4.3,1.3c0.2,0.1,0.5,0.4,0.2,0.9
	c-0.1,0.1-0.2,0.3-0.3,0.5c-0.2,0.4-0.5,0.5-0.9,0.2c-0.2-0.1-1.8-1.2-3.3-1.2c-2.7,0-3.5,1.7-3.5,2.8c0,1.7,1.3,2.7,3.4,3.5
	c3.4,1.4,5.6,2.7,5.6,5.6c0,2.6-2.5,4.5-5.4,4.5c-3,0-5-1.7-5.3-2C470.1,123.2,469.9,123,470.2,122.5"/>
<path class="st1" d="M2.1,8.5c0-0.4,0.3-0.8,0.7-0.8h9.1c7.9,0,14.3,6.4,14.3,14.2c0,7.9-6.4,14.3-14.3,14.3H2.8
	c-0.4,0-0.7-0.4-0.7-0.8V8.5z M11.2,33.4c6.7,0,11.5-4.8,11.5-11.5c0-6.7-4.8-11.4-11.5-11.4H5.1v22.9H11.2z"/>
<path class="st1" d="M32.3,8.5c0-0.4,0.3-0.8,0.8-0.8h16c0.4,0,0.8,0.4,0.8,0.8v1.2c0,0.4-0.3,0.8-0.8,0.8H35.4v9.9h11.7
	c0.4,0,0.8,0.4,0.8,0.8v1.2c0,0.4-0.4,0.8-0.8,0.8H35.4v10.4h13.7c0.4,0,0.8,0.4,0.8,0.8v1.2c0,0.4-0.3,0.8-0.8,0.8h-16
	c-0.4,0-0.8-0.4-0.8-0.8V8.5z"/>
<path class="st1" d="M55.4,8.5c0-0.4,0.3-0.8,0.8-0.8h9c5,0,9.1,4.1,9.1,9c0,5-4.1,9.2-9.1,9.2h-6.7v9.6c0,0.4-0.4,0.8-0.8,0.8h-1.5
	c-0.4,0-0.8-0.4-0.8-0.8V8.5z M64.9,22.8c3.3,0,6.2-2.7,6.2-6.2c0-3.3-2.8-5.8-6.2-5.8h-6.5v12H64.9z"/>
<path class="st1" d="M73.8,35.1L86.2,7.8c0.1-0.2,0.3-0.4,0.7-0.4h0.4c0.4,0,0.6,0.2,0.7,0.4l12.3,27.4c0.2,0.5-0.1,1.1-0.7,1.1
	h-1.6c-0.4,0-0.6-0.2-0.7-0.4l-3-6.7H79.8l-3,6.7c-0.1,0.2-0.3,0.4-0.7,0.4h-1.6C73.9,36.2,73.6,35.7,73.8,35.1 M93.1,26.5
	c-2-4.4-3.9-8.9-5.9-13.3h-0.3l-5.9,13.3H93.1z"/>
<path class="st1" d="M104.7,8.5c0-0.4,0.3-0.8,0.8-0.8H116c4.9,0,8.9,3.8,8.9,8.7c0,3.7-2.5,6.9-6,8.3l5.6,10.3
	c0.3,0.5,0,1.2-0.7,1.2h-2.1c-0.4,0-0.6-0.2-0.7-0.4L115.6,25h-7.8v10.4c0,0.4-0.4,0.8-0.8,0.8h-1.6c-0.4,0-0.8-0.4-0.8-0.8V8.5z
	 M115.8,22.4c3.1,0,5.9-2.6,5.9-5.9c0-3.1-2.7-5.7-5.9-5.7h-7.9v11.7H115.8z"/>
<path class="st1" d="M135.3,10.4h-7.1c-0.4,0-0.8-0.4-0.8-0.8V8.5c0-0.4,0.3-0.8,0.8-0.8h17.2c0.4,0,0.8,0.4,0.8,0.8v1.2
	c0,0.4-0.3,0.8-0.8,0.8h-7.1v25c0,0.4-0.4,0.8-0.8,0.8H136c-0.4,0-0.8-0.4-0.8-0.8V10.4z"/>
<path class="st1" d="M144.6,35.1L157,7.8c0.1-0.2,0.3-0.4,0.7-0.4h0.4c0.4,0,0.6,0.2,0.7,0.4L171,35.1c0.2,0.5-0.1,1.1-0.7,1.1h-1.6
	c-0.4,0-0.6-0.2-0.7-0.4l-3-6.7h-14.4l-3,6.7c-0.1,0.2-0.3,0.4-0.7,0.4h-1.6C144.7,36.2,144.4,35.7,144.6,35.1 M163.9,26.5
	c-2-4.4-3.9-8.9-5.9-13.3h-0.3l-5.9,13.3H163.9z"/>
<path class="st1" d="M179.8,7.9c0.1-0.3,0.4-0.6,0.7-0.6h0.7c0.3,0,0.6,0.2,0.7,0.4l8.1,22.4h0.2l7.9-22.4c0.1-0.2,0.4-0.4,0.7-0.4
	h0.7c0.3,0,0.7,0.2,0.7,0.6l5.2,27.3c0.1,0.6-0.1,1-0.7,1H203c-0.3,0-0.7-0.3-0.7-0.6l-3.6-20.9h-0.2L191,36.2
	c-0.1,0.2-0.4,0.4-0.7,0.4h-0.7c-0.2,0-0.6-0.2-0.7-0.4l-7.6-21.5h-0.2l-3.5,20.9c0,0.3-0.4,0.6-0.7,0.6h-1.6c-0.6,0-0.9-0.4-0.7-1
	L179.8,7.9z"/>
<path class="st1" d="M211.4,8.5c0-0.4,0.3-0.8,0.8-0.8h16c0.4,0,0.8,0.4,0.8,0.8v1.2c0,0.4-0.3,0.8-0.8,0.8h-13.7v9.9h11.7
	c0.4,0,0.8,0.4,0.8,0.8v1.2c0,0.4-0.4,0.8-0.8,0.8h-11.7v10.4h13.7c0.4,0,0.8,0.4,0.8,0.8v1.2c0,0.4-0.3,0.8-0.8,0.8h-16
	c-0.4,0-0.8-0.4-0.8-0.8V8.5z"/>
<path class="st1" d="M234.5,8c0-0.4,0.4-0.7,0.8-0.7h1l18.3,22.9h0.1V8.5c0-0.4,0.3-0.8,0.8-0.8h1.4c0.4,0,0.8,0.4,0.8,0.8v27.4
	c0,0.4-0.4,0.7-0.8,0.7h-0.7l-18.7-23.3h0v22.1c0,0.4-0.3,0.8-0.8,0.8h-1.4c-0.4,0-0.8-0.4-0.8-0.8V8z"/>
<path class="st1" d="M269.9,10.4h-7.1c-0.4,0-0.8-0.4-0.8-0.8V8.5c0-0.4,0.3-0.8,0.8-0.8h17.2c0.4,0,0.8,0.4,0.8,0.8v1.2
	c0,0.4-0.3,0.8-0.8,0.8H273v25c0,0.4-0.4,0.8-0.8,0.8h-1.5c-0.4,0-0.8-0.4-0.8-0.8V10.4z"/>
<path class="st1" d="M296.2,7.3c8.1,0,14.6,6.5,14.6,14.7c0,8.1-6.5,14.6-14.6,14.6c-8.1,0-14.6-6.5-14.6-14.6
	C281.6,13.9,288.1,7.3,296.2,7.3 M296.2,33.8c6.5,0,11.8-5.3,11.8-11.8c0-6.5-5.3-11.8-11.8-11.8c-6.5,0-11.8,5.4-11.8,11.8
	C284.4,28.5,289.7,33.8,296.2,33.8"/>
<path class="st1" d="M327.3,8.5c0-0.4,0.3-0.8,0.7-0.8h9.1c7.9,0,14.3,6.4,14.3,14.2c0,7.9-6.4,14.3-14.3,14.3h-9.1
	c-0.4,0-0.7-0.4-0.7-0.8V8.5z M336.5,33.4c6.7,0,11.5-4.8,11.5-11.5c0-6.7-4.8-11.4-11.5-11.4h-6.1v22.9H336.5z"/>
<path class="st1" d="M357.6,8.5c0-0.4,0.3-0.8,0.8-0.8h16c0.4,0,0.8,0.4,0.8,0.8v1.2c0,0.4-0.3,0.8-0.8,0.8h-13.7v9.9h11.7
	c0.4,0,0.8,0.4,0.8,0.8v1.2c0,0.4-0.4,0.8-0.8,0.8h-11.7v10.4h13.7c0.4,0,0.8,0.4,0.8,0.8v1.2c0,0.4-0.3,0.8-0.8,0.8h-16
	c-0.4,0-0.8-0.4-0.8-0.8V8.5z"/>
<path class="st1" d="M0.2,80.7c0.2-0.2,0.4-0.5,0.6-0.8c0.4-0.5,0.9-0.9,1.4-0.4c0.3,0.2,3.3,3.1,6.9,3.1c3.3,0,5.5-2.1,5.5-4.5
	c0-2.8-2.4-4.5-7.1-6.4c-4.5-2-7.2-3.8-7.2-8.4c0-2.8,2.2-7.2,8.7-7.2c4,0,7,2.1,7,2.1c0.2,0.1,0.7,0.6,0.2,1.4
	c-0.2,0.2-0.3,0.5-0.5,0.8c-0.4,0.6-0.8,0.7-1.4,0.4c-0.3-0.2-2.8-1.9-5.3-1.9c-4.3,0-5.6,2.8-5.6,4.5c0,2.7,2.1,4.3,5.5,5.7
	c5.5,2.2,9,4.3,9,9c0,4.2-4,7.3-8.8,7.3c-4.8,0-8.1-2.8-8.6-3.3C0.1,81.8-0.3,81.5,0.2,80.7"/>
<path class="st1" d="M20.2,84l12.4-27.4c0.1-0.2,0.3-0.4,0.7-0.4h0.4c0.4,0,0.6,0.2,0.7,0.4L46.7,84c0.2,0.5-0.1,1.1-0.7,1.1h-1.6
	c-0.4,0-0.6-0.2-0.7-0.4l-3-6.7H26.2l-3,6.7c-0.1,0.2-0.3,0.4-0.7,0.4h-1.6C20.3,85,20,84.5,20.2,84 M39.5,75.3
	c-2-4.4-3.9-8.9-5.9-13.3h-0.3l-5.9,13.3H39.5z"/>
<path class="st1" d="M51.1,57.3c0-0.4,0.3-0.8,0.8-0.8h1.6c0.4,0,0.8,0.4,0.8,0.8v25H66c0.4,0,0.8,0.4,0.8,0.8v1.2
	c0,0.4-0.3,0.8-0.8,0.8H51.9c-0.4,0-0.8-0.4-0.8-0.8V57.3z"/>
<path class="st1" d="M69.5,57.3c0-0.4,0.4-0.8,0.8-0.8h1.5c0.4,0,0.8,0.4,0.8,0.8v17c0,4.6,2.9,8.3,7.6,8.3c4.8,0,7.7-3.5,7.7-8.2
	v-17c0-0.4,0.3-0.8,0.8-0.8h1.5c0.4,0,0.8,0.4,0.8,0.8v17.2c0,6.2-4.4,10.9-10.8,10.9c-6.4,0-10.7-4.7-10.7-10.9V57.3z"/>
<path class="st1" d="M98.8,57.3c0-0.4,0.3-0.8,0.7-0.8h9.1c7.9,0,14.3,6.4,14.3,14.2c0,7.9-6.4,14.3-14.3,14.3h-9.1
	c-0.4,0-0.7-0.4-0.7-0.8V57.3z M108,82.2c6.7,0,11.5-4.8,11.5-11.5c0-6.7-4.8-11.4-11.5-11.4h-6.1v22.9H108z"/>
<path class="st1" d="M142.7,56.7c0.1-0.3,0.4-0.6,0.7-0.6h0.7c0.3,0,0.6,0.2,0.7,0.4l8.1,22.4h0.2l7.9-22.4c0.1-0.2,0.4-0.4,0.7-0.4
	h0.7c0.3,0,0.7,0.2,0.7,0.6l5.2,27.3c0.1,0.6-0.1,1-0.7,1h-1.6c-0.3,0-0.7-0.3-0.7-0.6l-3.6-20.9h-0.2L153.9,85
	c-0.1,0.2-0.4,0.4-0.7,0.4h-0.7c-0.2,0-0.6-0.2-0.7-0.4l-7.6-21.5h-0.2l-3.5,20.9c0,0.3-0.4,0.6-0.7,0.6h-1.6c-0.6,0-0.9-0.4-0.7-1
	L142.7,56.7z"/>
<path class="st1" d="M174.3,57.3c0-0.4,0.3-0.8,0.8-0.8h16c0.4,0,0.8,0.4,0.8,0.8v1.2c0,0.4-0.3,0.8-0.8,0.8h-13.7v9.9h11.7
	c0.4,0,0.8,0.4,0.8,0.8v1.2c0,0.4-0.4,0.8-0.8,0.8h-11.7v10.4h13.7c0.4,0,0.8,0.4,0.8,0.8v1.2c0,0.4-0.3,0.8-0.8,0.8h-16
	c-0.4,0-0.8-0.4-0.8-0.8V57.3z"/>
<path class="st1" d="M197.3,56.9c0-0.4,0.4-0.7,0.8-0.7h1L217.5,79h0.1V57.3c0-0.4,0.3-0.8,0.8-0.8h1.4c0.4,0,0.8,0.4,0.8,0.8v27.4
	c0,0.4-0.4,0.7-0.8,0.7H219l-18.7-23.3h0v22.1c0,0.4-0.3,0.8-0.8,0.8h-1.4c-0.4,0-0.8-0.4-0.8-0.8V56.9z"/>
<path class="st1" d="M232.8,59.3h-7.1c-0.4,0-0.8-0.4-0.8-0.8v-1.2c0-0.4,0.3-0.8,0.8-0.8H243c0.4,0,0.8,0.4,0.8,0.8v1.2
	c0,0.4-0.3,0.8-0.8,0.8h-7.1v25c0,0.4-0.4,0.8-0.8,0.8h-1.5c-0.4,0-0.8-0.4-0.8-0.8V59.3z"/>
<path class="st1" d="M242.1,84l12.4-27.4c0.1-0.2,0.3-0.4,0.7-0.4h0.4c0.4,0,0.6,0.2,0.7,0.4L268.6,84c0.2,0.5-0.1,1.1-0.7,1.1h-1.6
	c-0.4,0-0.6-0.2-0.7-0.4l-3-6.7h-14.4l-3,6.7c-0.1,0.2-0.3,0.4-0.7,0.4h-1.6C242.2,85,241.9,84.5,242.1,84 M261.5,75.3
	c-2-4.4-3.9-8.9-5.9-13.3h-0.3l-5.9,13.3H261.5z"/>
<path class="st1" d="M273,57.3c0-0.4,0.3-0.8,0.8-0.8h1.6c0.4,0,0.8,0.4,0.8,0.8v25h11.7c0.4,0,0.8,0.4,0.8,0.8v1.2
	c0,0.4-0.3,0.8-0.8,0.8h-14.1c-0.4,0-0.8-0.4-0.8-0.8V57.3z"/>
<path class="st1" d="M303.3,57.3c0-0.4,0.3-0.8,0.8-0.8h16c0.4,0,0.8,0.4,0.8,0.8v1.2c0,0.4-0.3,0.8-0.8,0.8h-13.7v9.9h11.7
	c0.4,0,0.8,0.4,0.8,0.8v1.2c0,0.4-0.4,0.8-0.8,0.8h-11.7v10.4h13.7c0.4,0,0.8,0.4,0.8,0.8v1.2c0,0.4-0.3,0.8-0.8,0.8h-16
	c-0.4,0-0.8-0.4-0.8-0.8V57.3z"/>
<path class="st1" d="M325.3,80.7c0.2-0.2,0.4-0.5,0.6-0.8c0.4-0.5,0.9-0.9,1.4-0.4c0.3,0.2,3.3,3.1,6.9,3.1c3.3,0,5.5-2.1,5.5-4.5
	c0-2.8-2.4-4.5-7.1-6.4c-4.5-2-7.2-3.8-7.2-8.4c0-2.8,2.2-7.2,8.7-7.2c4,0,7,2.1,7,2.1c0.2,0.1,0.7,0.6,0.2,1.4
	c-0.2,0.2-0.3,0.5-0.5,0.8c-0.4,0.6-0.8,0.7-1.4,0.4c-0.3-0.2-2.8-1.9-5.3-1.9c-4.3,0-5.6,2.8-5.6,4.5c0,2.7,2.1,4.3,5.5,5.7
	c5.5,2.2,9,4.3,9,9c0,4.2-4,7.3-8.8,7.3c-4.8,0-8.1-2.8-8.6-3.3C325.2,81.8,324.8,81.5,325.3,80.7"/>
<path class="st1" d="M353.2,59.3h-7.1c-0.4,0-0.8-0.4-0.8-0.8v-1.2c0-0.4,0.3-0.8,0.8-0.8h17.2c0.4,0,0.8,0.4,0.8,0.8v1.2
	c0,0.4-0.3,0.8-0.8,0.8h-7.1v25c0,0.4-0.4,0.8-0.8,0.8H354c-0.4,0-0.8-0.4-0.8-0.8V59.3z"/>
<path class="st1" d="M368.4,57.3c0-0.4,0.4-0.8,0.8-0.8h1.5c0.4,0,0.8,0.4,0.8,0.8v17c0,4.6,2.9,8.3,7.6,8.3c4.8,0,7.7-3.5,7.7-8.2
	v-17c0-0.4,0.3-0.8,0.8-0.8h1.5c0.4,0,0.8,0.4,0.8,0.8v17.2c0,6.2-4.4,10.9-10.8,10.9c-6.4,0-10.7-4.7-10.7-10.9V57.3z"/>
<path class="st1" d="M397.8,57.3c0-0.4,0.3-0.8,0.7-0.8h9.1c7.9,0,14.3,6.4,14.3,14.2c0,7.9-6.4,14.3-14.3,14.3h-9.1
	c-0.4,0-0.7-0.4-0.7-0.8V57.3z M407,82.2c6.7,0,11.5-4.8,11.5-11.5c0-6.7-4.8-11.4-11.5-11.4h-6.1v22.9H407z"/>
<path class="st1" d="M428,57.3c0-0.4,0.4-0.8,0.8-0.8h1.6c0.4,0,0.8,0.4,0.8,0.8v26.9c0,0.4-0.4,0.8-0.8,0.8h-1.6
	c-0.4,0-0.8-0.4-0.8-0.8V57.3z"/>
<path class="st1" d="M435.5,84l12.4-27.4c0.1-0.2,0.3-0.4,0.7-0.4h0.4c0.4,0,0.6,0.2,0.7,0.4L462,84c0.2,0.5-0.1,1.1-0.7,1.1h-1.6
	c-0.4,0-0.6-0.2-0.7-0.4l-3-6.7h-14.4l-3,6.7c-0.1,0.2-0.3,0.4-0.7,0.4h-1.6C435.6,85,435.3,84.5,435.5,84 M454.9,75.3
	c-2-4.4-3.9-8.9-5.9-13.3h-0.3l-5.9,13.3H454.9z"/>
<path class="st1" d="M466.4,56.9c0-0.4,0.4-0.7,0.8-0.7h1L486.6,79h0.1V57.3c0-0.4,0.3-0.8,0.8-0.8h1.4c0.4,0,0.8,0.4,0.8,0.8v27.4
	c0,0.4-0.4,0.7-0.8,0.7h-0.7l-18.7-23.3h0v22.1c0,0.4-0.3,0.8-0.8,0.8h-1.4c-0.4,0-0.8-0.4-0.8-0.8V56.9z"/>
<path class="st1" d="M501.9,59.3h-7.1c-0.4,0-0.8-0.4-0.8-0.8v-1.2c0-0.4,0.3-0.8,0.8-0.8h17.2c0.4,0,0.8,0.4,0.8,0.8v1.2
	c0,0.4-0.3,0.8-0.8,0.8H505v25c0,0.4-0.4,0.8-0.8,0.8h-1.5c-0.4,0-0.8-0.4-0.8-0.8V59.3z"/>
<path class="st1" d="M517.2,57.3c0-0.4,0.4-0.8,0.8-0.8h1.6c0.4,0,0.8,0.4,0.8,0.8v26.9c0,0.4-0.4,0.8-0.8,0.8H518
	c-0.4,0-0.8-0.4-0.8-0.8V57.3z"/>
<path class="st1" d="M528.4,57.3c0-0.4,0.3-0.8,0.8-0.8h1.6c0.4,0,0.8,0.4,0.8,0.8v25h11.7c0.4,0,0.8,0.4,0.8,0.8v1.2
	c0,0.4-0.3,0.8-0.8,0.8h-14.1c-0.4,0-0.8-0.4-0.8-0.8V57.3z"/>
</svg>
